<mxfile host="app.diagrams.net" modified="2022-07-13T05:15:32.122Z" agent="5.0 (Macintosh; Intel Mac OS X 10_15_7) AppleWebKit/537.36 (KHTML, like Gecko) Chrome/103.0.0.0 Safari/537.36" etag="25IJzgUygXIivdTsHYUb" version="20.0.4" type="github">
  <diagram id="9gkHI4vsH9qjdE6WEu2j" name="Page-1">
    <mxGraphModel dx="1968" dy="608" grid="1" gridSize="10" guides="1" tooltips="1" connect="1" arrows="1" fold="1" page="1" pageScale="1" pageWidth="827" pageHeight="1169" math="0" shadow="0">
      <root>
        <mxCell id="0" />
        <mxCell id="1" parent="0" />
        <mxCell id="A9LQamvl4RPl7JUWQ36L-68" value="Redis" style="rounded=0;whiteSpace=wrap;html=1;fontSize=20;fillColor=#f9f7ed;strokeColor=#36393d;verticalAlign=bottom;fontStyle=1" vertex="1" parent="1">
          <mxGeometry x="-10" y="170" width="1080" height="950" as="geometry" />
        </mxCell>
        <mxCell id="A9LQamvl4RPl7JUWQ36L-64" value="" style="whiteSpace=wrap;html=1;fontSize=16;rounded=0;fillColor=#cce5ff;strokeColor=#36393d;" vertex="1" parent="1">
          <mxGeometry x="30" y="375" width="1010" height="710" as="geometry" />
        </mxCell>
        <mxCell id="A9LQamvl4RPl7JUWQ36L-58" style="edgeStyle=orthogonalEdgeStyle;rounded=0;orthogonalLoop=1;jettySize=auto;html=1;entryX=0.5;entryY=0;entryDx=0;entryDy=0;fontSize=16;startArrow=classic;startFill=1;" edge="1" parent="1" source="A9LQamvl4RPl7JUWQ36L-1" target="A9LQamvl4RPl7JUWQ36L-5">
          <mxGeometry relative="1" as="geometry" />
        </mxCell>
        <mxCell id="A9LQamvl4RPl7JUWQ36L-1" value="客户端&lt;br style=&quot;font-size: 16px;&quot;&gt;（发起连接）" style="rounded=1;whiteSpace=wrap;html=1;fontSize=16;fillColor=#f9f7ed;strokeColor=#36393d;" vertex="1" parent="1">
          <mxGeometry x="110" y="90" width="120" height="60" as="geometry" />
        </mxCell>
        <mxCell id="A9LQamvl4RPl7JUWQ36L-59" style="edgeStyle=orthogonalEdgeStyle;rounded=0;orthogonalLoop=1;jettySize=auto;html=1;fontSize=16;startArrow=classic;startFill=1;" edge="1" parent="1" source="A9LQamvl4RPl7JUWQ36L-2" target="A9LQamvl4RPl7JUWQ36L-6">
          <mxGeometry relative="1" as="geometry" />
        </mxCell>
        <mxCell id="A9LQamvl4RPl7JUWQ36L-2" value="客户端1&lt;br style=&quot;font-size: 16px;&quot;&gt;（已建立连接）" style="rounded=1;whiteSpace=wrap;html=1;fontSize=16;fillColor=#cdeb8b;strokeColor=#36393d;" vertex="1" parent="1">
          <mxGeometry x="280" y="90" width="120" height="60" as="geometry" />
        </mxCell>
        <mxCell id="A9LQamvl4RPl7JUWQ36L-60" style="edgeStyle=orthogonalEdgeStyle;rounded=0;orthogonalLoop=1;jettySize=auto;html=1;entryX=0.5;entryY=0;entryDx=0;entryDy=0;fontSize=16;startArrow=classic;startFill=1;" edge="1" parent="1" source="A9LQamvl4RPl7JUWQ36L-3" target="A9LQamvl4RPl7JUWQ36L-7">
          <mxGeometry relative="1" as="geometry" />
        </mxCell>
        <mxCell id="A9LQamvl4RPl7JUWQ36L-3" value="客户端2&lt;br style=&quot;font-size: 16px;&quot;&gt;（已建立连接）" style="rounded=1;whiteSpace=wrap;html=1;fontSize=16;fillColor=#cdeb8b;strokeColor=#36393d;" vertex="1" parent="1">
          <mxGeometry x="450" y="90" width="120" height="60" as="geometry" />
        </mxCell>
        <mxCell id="A9LQamvl4RPl7JUWQ36L-61" style="edgeStyle=orthogonalEdgeStyle;rounded=0;orthogonalLoop=1;jettySize=auto;html=1;fontSize=16;startArrow=classic;startFill=1;" edge="1" parent="1" source="A9LQamvl4RPl7JUWQ36L-4" target="A9LQamvl4RPl7JUWQ36L-8">
          <mxGeometry relative="1" as="geometry" />
        </mxCell>
        <mxCell id="A9LQamvl4RPl7JUWQ36L-4" value="客户端3&lt;br style=&quot;font-size: 16px;&quot;&gt;（已建立连接）" style="rounded=1;whiteSpace=wrap;html=1;fontSize=16;fillColor=#cdeb8b;strokeColor=#36393d;" vertex="1" parent="1">
          <mxGeometry x="620" y="90" width="120" height="60" as="geometry" />
        </mxCell>
        <mxCell id="A9LQamvl4RPl7JUWQ36L-63" style="rounded=0;orthogonalLoop=1;jettySize=auto;html=1;fontSize=16;exitX=0.5;exitY=1;exitDx=0;exitDy=0;entryX=0.5;entryY=0;entryDx=0;entryDy=0;" edge="1" parent="1" source="A9LQamvl4RPl7JUWQ36L-5" target="A9LQamvl4RPl7JUWQ36L-9">
          <mxGeometry relative="1" as="geometry" />
        </mxCell>
        <mxCell id="A9LQamvl4RPl7JUWQ36L-5" value="listen socket" style="rounded=0;whiteSpace=wrap;html=1;fontSize=16;fillColor=#ffcc99;strokeColor=#36393d;" vertex="1" parent="1">
          <mxGeometry x="110" y="190" width="120" height="60" as="geometry" />
        </mxCell>
        <mxCell id="A9LQamvl4RPl7JUWQ36L-65" value="" style="edgeStyle=none;rounded=0;orthogonalLoop=1;jettySize=auto;html=1;fontSize=16;entryX=0.5;entryY=0;entryDx=0;entryDy=0;exitX=0.5;exitY=1;exitDx=0;exitDy=0;" edge="1" parent="1" source="A9LQamvl4RPl7JUWQ36L-6" target="A9LQamvl4RPl7JUWQ36L-9">
          <mxGeometry relative="1" as="geometry" />
        </mxCell>
        <mxCell id="A9LQamvl4RPl7JUWQ36L-6" value="client socket 1" style="rounded=0;whiteSpace=wrap;html=1;fontSize=16;fillColor=#ffcccc;strokeColor=#36393d;" vertex="1" parent="1">
          <mxGeometry x="280" y="190" width="120" height="60" as="geometry" />
        </mxCell>
        <mxCell id="A9LQamvl4RPl7JUWQ36L-66" style="edgeStyle=none;rounded=0;orthogonalLoop=1;jettySize=auto;html=1;entryX=0.5;entryY=0;entryDx=0;entryDy=0;fontSize=16;exitX=0.5;exitY=1;exitDx=0;exitDy=0;" edge="1" parent="1" source="A9LQamvl4RPl7JUWQ36L-7" target="A9LQamvl4RPl7JUWQ36L-9">
          <mxGeometry relative="1" as="geometry" />
        </mxCell>
        <mxCell id="A9LQamvl4RPl7JUWQ36L-7" value="client socket 2" style="rounded=0;whiteSpace=wrap;html=1;fontSize=16;fillColor=#ffcccc;strokeColor=#36393d;" vertex="1" parent="1">
          <mxGeometry x="450" y="190" width="120" height="60" as="geometry" />
        </mxCell>
        <mxCell id="A9LQamvl4RPl7JUWQ36L-67" style="edgeStyle=none;rounded=0;orthogonalLoop=1;jettySize=auto;html=1;entryX=0.5;entryY=0;entryDx=0;entryDy=0;fontSize=16;exitX=0.5;exitY=1;exitDx=0;exitDy=0;" edge="1" parent="1" source="A9LQamvl4RPl7JUWQ36L-8" target="A9LQamvl4RPl7JUWQ36L-9">
          <mxGeometry relative="1" as="geometry" />
        </mxCell>
        <mxCell id="A9LQamvl4RPl7JUWQ36L-8" value="client socket 3" style="rounded=0;whiteSpace=wrap;html=1;fontSize=16;fillColor=#ffcccc;strokeColor=#36393d;" vertex="1" parent="1">
          <mxGeometry x="620" y="190" width="120" height="60" as="geometry" />
        </mxCell>
        <mxCell id="A9LQamvl4RPl7JUWQ36L-9" value="I/O 多路复用&lt;br&gt;（epoll）" style="rounded=1;whiteSpace=wrap;html=1;fontSize=16;fillColor=#d5e8d4;gradientColor=#97d077;strokeColor=#82b366;" vertex="1" parent="1">
          <mxGeometry x="110" y="300" width="630" height="60" as="geometry" />
        </mxCell>
        <mxCell id="A9LQamvl4RPl7JUWQ36L-14" value="连接事件" style="rounded=0;orthogonalLoop=1;jettySize=auto;html=1;fontSize=16;" edge="1" parent="1" source="A9LQamvl4RPl7JUWQ36L-10" target="A9LQamvl4RPl7JUWQ36L-11">
          <mxGeometry relative="1" as="geometry" />
        </mxCell>
        <mxCell id="A9LQamvl4RPl7JUWQ36L-15" value="读事件" style="edgeStyle=none;rounded=0;orthogonalLoop=1;jettySize=auto;html=1;fontSize=16;" edge="1" parent="1" source="A9LQamvl4RPl7JUWQ36L-10" target="A9LQamvl4RPl7JUWQ36L-12">
          <mxGeometry relative="1" as="geometry" />
        </mxCell>
        <mxCell id="A9LQamvl4RPl7JUWQ36L-16" value="写事件" style="edgeStyle=none;rounded=0;orthogonalLoop=1;jettySize=auto;html=1;entryX=0.5;entryY=0;entryDx=0;entryDy=0;fontSize=16;" edge="1" parent="1" source="A9LQamvl4RPl7JUWQ36L-10" target="A9LQamvl4RPl7JUWQ36L-13">
          <mxGeometry relative="1" as="geometry" />
        </mxCell>
        <mxCell id="A9LQamvl4RPl7JUWQ36L-10" value="事件分发器" style="rounded=1;whiteSpace=wrap;html=1;fontSize=16;fillColor=#ffcd28;gradientColor=#ffa500;strokeColor=#d79b00;" vertex="1" parent="1">
          <mxGeometry x="115" y="430" width="620" height="60" as="geometry" />
        </mxCell>
        <mxCell id="A9LQamvl4RPl7JUWQ36L-44" style="edgeStyle=none;rounded=0;orthogonalLoop=1;jettySize=auto;html=1;entryX=0.5;entryY=0;entryDx=0;entryDy=0;fontSize=16;" edge="1" parent="1" source="A9LQamvl4RPl7JUWQ36L-11" target="A9LQamvl4RPl7JUWQ36L-18">
          <mxGeometry relative="1" as="geometry" />
        </mxCell>
        <mxCell id="A9LQamvl4RPl7JUWQ36L-11" value="连接事件&lt;br&gt;处理函数" style="ellipse;whiteSpace=wrap;html=1;fontSize=16;fillColor=#0050ef;fontColor=#ffffff;strokeColor=#001DBC;" vertex="1" parent="1">
          <mxGeometry x="130" y="560" width="120" height="80" as="geometry" />
        </mxCell>
        <mxCell id="A9LQamvl4RPl7JUWQ36L-43" style="rounded=0;orthogonalLoop=1;jettySize=auto;html=1;entryX=0.5;entryY=0;entryDx=0;entryDy=0;fontSize=16;" edge="1" parent="1" source="A9LQamvl4RPl7JUWQ36L-12" target="A9LQamvl4RPl7JUWQ36L-24">
          <mxGeometry relative="1" as="geometry" />
        </mxCell>
        <mxCell id="A9LQamvl4RPl7JUWQ36L-12" value="读事件&lt;br&gt;处理函数" style="ellipse;whiteSpace=wrap;html=1;fontSize=16;fillColor=#d80073;fontColor=#ffffff;strokeColor=#A50040;" vertex="1" parent="1">
          <mxGeometry x="365" y="560" width="120" height="80" as="geometry" />
        </mxCell>
        <mxCell id="A9LQamvl4RPl7JUWQ36L-45" style="edgeStyle=none;rounded=0;orthogonalLoop=1;jettySize=auto;html=1;fontSize=16;" edge="1" parent="1" source="A9LQamvl4RPl7JUWQ36L-13" target="A9LQamvl4RPl7JUWQ36L-39">
          <mxGeometry relative="1" as="geometry" />
        </mxCell>
        <mxCell id="A9LQamvl4RPl7JUWQ36L-13" value="写事件&lt;br&gt;处理函数" style="ellipse;whiteSpace=wrap;html=1;fontSize=16;fillColor=#008a00;fontColor=#ffffff;strokeColor=#005700;" vertex="1" parent="1">
          <mxGeometry x="580" y="560" width="120" height="80" as="geometry" />
        </mxCell>
        <mxCell id="A9LQamvl4RPl7JUWQ36L-20" style="edgeStyle=none;rounded=0;orthogonalLoop=1;jettySize=auto;html=1;entryX=0.5;entryY=0;entryDx=0;entryDy=0;fontSize=16;" edge="1" parent="1" source="A9LQamvl4RPl7JUWQ36L-18" target="A9LQamvl4RPl7JUWQ36L-19">
          <mxGeometry relative="1" as="geometry" />
        </mxCell>
        <mxCell id="A9LQamvl4RPl7JUWQ36L-18" value="调用 accept&lt;br&gt;&amp;nbsp;接收连接" style="rounded=1;whiteSpace=wrap;html=1;fontSize=16;fillColor=#ffff88;strokeColor=#36393d;" vertex="1" parent="1">
          <mxGeometry x="130" y="680" width="120" height="60" as="geometry" />
        </mxCell>
        <mxCell id="A9LQamvl4RPl7JUWQ36L-22" style="edgeStyle=none;rounded=0;orthogonalLoop=1;jettySize=auto;html=1;entryX=0.5;entryY=0;entryDx=0;entryDy=0;fontSize=16;" edge="1" parent="1" source="A9LQamvl4RPl7JUWQ36L-19" target="A9LQamvl4RPl7JUWQ36L-21">
          <mxGeometry relative="1" as="geometry" />
        </mxCell>
        <mxCell id="A9LQamvl4RPl7JUWQ36L-46" value="epoll_crt" style="edgeStyle=orthogonalEdgeStyle;rounded=0;orthogonalLoop=1;jettySize=auto;html=1;entryX=0;entryY=0.5;entryDx=0;entryDy=0;fontSize=16;dashed=1;labelBackgroundColor=none;" edge="1" parent="1" source="A9LQamvl4RPl7JUWQ36L-19" target="A9LQamvl4RPl7JUWQ36L-9">
          <mxGeometry x="-0.037" y="10" relative="1" as="geometry">
            <Array as="points">
              <mxPoint x="80" y="790" />
              <mxPoint x="80" y="330" />
            </Array>
            <mxPoint as="offset" />
          </mxGeometry>
        </mxCell>
        <mxCell id="A9LQamvl4RPl7JUWQ36L-19" value="将已连接 socket 添加到 epoll" style="rounded=1;whiteSpace=wrap;html=1;fontSize=16;fillColor=#ffff88;strokeColor=#36393d;" vertex="1" parent="1">
          <mxGeometry x="130" y="760" width="120" height="60" as="geometry" />
        </mxCell>
        <mxCell id="A9LQamvl4RPl7JUWQ36L-40" value="注册" style="edgeStyle=orthogonalEdgeStyle;rounded=0;orthogonalLoop=1;jettySize=auto;html=1;entryX=0;entryY=0.5;entryDx=0;entryDy=0;fontSize=16;exitX=1;exitY=0.5;exitDx=0;exitDy=0;dashed=1;labelBackgroundColor=none;" edge="1" parent="1" source="A9LQamvl4RPl7JUWQ36L-21" target="A9LQamvl4RPl7JUWQ36L-12">
          <mxGeometry relative="1" as="geometry" />
        </mxCell>
        <mxCell id="A9LQamvl4RPl7JUWQ36L-21" value="注册「读事件」处理函数" style="rounded=1;whiteSpace=wrap;html=1;fontSize=16;fillColor=#ffff88;strokeColor=#36393d;" vertex="1" parent="1">
          <mxGeometry x="130" y="840" width="120" height="60" as="geometry" />
        </mxCell>
        <mxCell id="A9LQamvl4RPl7JUWQ36L-23" style="edgeStyle=none;rounded=0;orthogonalLoop=1;jettySize=auto;html=1;entryX=0.5;entryY=0;entryDx=0;entryDy=0;fontSize=16;" edge="1" parent="1" source="A9LQamvl4RPl7JUWQ36L-24" target="A9LQamvl4RPl7JUWQ36L-26">
          <mxGeometry relative="1" as="geometry" />
        </mxCell>
        <mxCell id="A9LQamvl4RPl7JUWQ36L-24" value="调用 read &lt;br&gt;接收数据" style="rounded=1;whiteSpace=wrap;html=1;fontSize=16;fillColor=#ffff88;strokeColor=#36393d;" vertex="1" parent="1">
          <mxGeometry x="365" y="680" width="120" height="60" as="geometry" />
        </mxCell>
        <mxCell id="A9LQamvl4RPl7JUWQ36L-29" style="edgeStyle=none;rounded=0;orthogonalLoop=1;jettySize=auto;html=1;entryX=0.5;entryY=0;entryDx=0;entryDy=0;fontSize=16;" edge="1" parent="1" source="A9LQamvl4RPl7JUWQ36L-26" target="A9LQamvl4RPl7JUWQ36L-28">
          <mxGeometry relative="1" as="geometry" />
        </mxCell>
        <mxCell id="A9LQamvl4RPl7JUWQ36L-26" value="解析命令" style="rounded=1;whiteSpace=wrap;html=1;fontSize=16;fillColor=#ffff88;strokeColor=#36393d;" vertex="1" parent="1">
          <mxGeometry x="365" y="760" width="120" height="60" as="geometry" />
        </mxCell>
        <mxCell id="A9LQamvl4RPl7JUWQ36L-51" style="edgeStyle=orthogonalEdgeStyle;rounded=0;orthogonalLoop=1;jettySize=auto;html=1;entryX=0.5;entryY=0;entryDx=0;entryDy=0;fontSize=16;" edge="1" parent="1" source="A9LQamvl4RPl7JUWQ36L-27" target="A9LQamvl4RPl7JUWQ36L-50">
          <mxGeometry relative="1" as="geometry" />
        </mxCell>
        <mxCell id="A9LQamvl4RPl7JUWQ36L-52" style="edgeStyle=orthogonalEdgeStyle;rounded=0;orthogonalLoop=1;jettySize=auto;html=1;fontSize=16;" edge="1" parent="1" source="A9LQamvl4RPl7JUWQ36L-27" target="A9LQamvl4RPl7JUWQ36L-31">
          <mxGeometry relative="1" as="geometry" />
        </mxCell>
        <mxCell id="A9LQamvl4RPl7JUWQ36L-27" value="添加到发送队列" style="rounded=1;whiteSpace=wrap;html=1;fontSize=16;fillColor=#ffff88;strokeColor=#36393d;" vertex="1" parent="1">
          <mxGeometry x="365" y="920" width="120" height="60" as="geometry" />
        </mxCell>
        <mxCell id="A9LQamvl4RPl7JUWQ36L-30" style="edgeStyle=none;rounded=0;orthogonalLoop=1;jettySize=auto;html=1;fontSize=16;" edge="1" parent="1" source="A9LQamvl4RPl7JUWQ36L-28" target="A9LQamvl4RPl7JUWQ36L-27">
          <mxGeometry relative="1" as="geometry" />
        </mxCell>
        <mxCell id="A9LQamvl4RPl7JUWQ36L-28" value="执行命令" style="rounded=1;whiteSpace=wrap;html=1;fontSize=16;fillColor=#ffff88;strokeColor=#36393d;" vertex="1" parent="1">
          <mxGeometry x="365" y="840" width="120" height="60" as="geometry" />
        </mxCell>
        <mxCell id="A9LQamvl4RPl7JUWQ36L-31" value="写发送队列" style="shape=cylinder3;whiteSpace=wrap;html=1;boundedLbl=1;backgroundOutline=1;size=15;fontSize=16;fillColor=#6a00ff;strokeColor=#3700CC;fontColor=#ffffff;" vertex="1" parent="1">
          <mxGeometry x="590" y="845" width="90" height="210" as="geometry" />
        </mxCell>
        <mxCell id="A9LQamvl4RPl7JUWQ36L-32" style="edgeStyle=none;rounded=0;orthogonalLoop=1;jettySize=auto;html=1;entryX=0.5;entryY=0;entryDx=0;entryDy=0;fontSize=16;" edge="1" parent="1" source="A9LQamvl4RPl7JUWQ36L-33" target="A9LQamvl4RPl7JUWQ36L-35">
          <mxGeometry relative="1" as="geometry" />
        </mxCell>
        <mxCell id="A9LQamvl4RPl7JUWQ36L-54" style="edgeStyle=orthogonalEdgeStyle;rounded=0;orthogonalLoop=1;jettySize=auto;html=1;entryX=1;entryY=0.5;entryDx=0;entryDy=0;entryPerimeter=0;fontSize=16;" edge="1" parent="1" source="A9LQamvl4RPl7JUWQ36L-33" target="A9LQamvl4RPl7JUWQ36L-31">
          <mxGeometry relative="1" as="geometry" />
        </mxCell>
        <mxCell id="A9LQamvl4RPl7JUWQ36L-33" value="遍历发送队列" style="rounded=1;whiteSpace=wrap;html=1;fontSize=16;fillColor=#ffff88;strokeColor=#36393d;" vertex="1" parent="1">
          <mxGeometry x="750" y="820" width="120" height="60" as="geometry" />
        </mxCell>
        <mxCell id="A9LQamvl4RPl7JUWQ36L-34" style="edgeStyle=none;rounded=0;orthogonalLoop=1;jettySize=auto;html=1;entryX=0.5;entryY=0;entryDx=0;entryDy=0;fontSize=16;" edge="1" parent="1" source="A9LQamvl4RPl7JUWQ36L-35" target="A9LQamvl4RPl7JUWQ36L-38">
          <mxGeometry relative="1" as="geometry" />
        </mxCell>
        <mxCell id="A9LQamvl4RPl7JUWQ36L-35" value="调用 write&amp;nbsp;&lt;br&gt;发送数据" style="rounded=1;whiteSpace=wrap;html=1;fontSize=16;fillColor=#ffff88;strokeColor=#36393d;" vertex="1" parent="1">
          <mxGeometry x="750" y="900" width="120" height="60" as="geometry" />
        </mxCell>
        <mxCell id="A9LQamvl4RPl7JUWQ36L-41" value="注册" style="edgeStyle=orthogonalEdgeStyle;rounded=0;orthogonalLoop=1;jettySize=auto;html=1;entryX=1;entryY=0.5;entryDx=0;entryDy=0;dashed=1;fontSize=16;labelBackgroundColor=none;exitX=1;exitY=0.5;exitDx=0;exitDy=0;" edge="1" parent="1" source="A9LQamvl4RPl7JUWQ36L-38" target="A9LQamvl4RPl7JUWQ36L-13">
          <mxGeometry x="-0.8526" relative="1" as="geometry">
            <mxPoint x="910" y="1020" as="sourcePoint" />
            <Array as="points">
              <mxPoint x="980" y="1020" />
              <mxPoint x="980" y="600" />
            </Array>
            <mxPoint as="offset" />
          </mxGeometry>
        </mxCell>
        <mxCell id="A9LQamvl4RPl7JUWQ36L-38" value="如果数据没发送完，就注册「写事件」处理函数" style="rounded=1;whiteSpace=wrap;html=1;fontSize=16;fillColor=#ffff88;strokeColor=#36393d;" vertex="1" parent="1">
          <mxGeometry x="750" y="980" width="120" height="80" as="geometry" />
        </mxCell>
        <mxCell id="A9LQamvl4RPl7JUWQ36L-39" value="调用 write &lt;br&gt;发送数据" style="rounded=1;whiteSpace=wrap;html=1;fontSize=16;fillColor=#ffff88;strokeColor=#36393d;" vertex="1" parent="1">
          <mxGeometry x="580" y="680" width="120" height="60" as="geometry" />
        </mxCell>
        <mxCell id="A9LQamvl4RPl7JUWQ36L-48" value="" style="shape=flexArrow;endArrow=classic;html=1;rounded=0;fontSize=16;fillColor=#ffcd28;gradientColor=#ffa500;strokeColor=#d79b00;" edge="1" parent="1">
          <mxGeometry width="50" height="50" relative="1" as="geometry">
            <mxPoint x="420" y="370" as="sourcePoint" />
            <mxPoint x="420" y="420" as="targetPoint" />
          </mxGeometry>
        </mxCell>
        <mxCell id="A9LQamvl4RPl7JUWQ36L-49" value="epoll_wait 发现事件" style="text;html=1;align=center;verticalAlign=middle;resizable=0;points=[];autosize=1;strokeColor=none;fillColor=none;fontSize=16;" vertex="1" parent="1">
          <mxGeometry x="430" y="375" width="160" height="30" as="geometry" />
        </mxCell>
        <mxCell id="A9LQamvl4RPl7JUWQ36L-50" value="执行结果加入到缓存，等待发送" style="rounded=1;whiteSpace=wrap;html=1;fontSize=16;fillColor=#ffff88;strokeColor=#36393d;" vertex="1" parent="1">
          <mxGeometry x="365" y="1000" width="120" height="60" as="geometry" />
        </mxCell>
        <mxCell id="A9LQamvl4RPl7JUWQ36L-57" style="edgeStyle=orthogonalEdgeStyle;rounded=0;orthogonalLoop=1;jettySize=auto;html=1;entryX=0.5;entryY=0;entryDx=0;entryDy=0;fontSize=16;" edge="1" parent="1" source="A9LQamvl4RPl7JUWQ36L-55" target="A9LQamvl4RPl7JUWQ36L-33">
          <mxGeometry relative="1" as="geometry" />
        </mxCell>
        <mxCell id="A9LQamvl4RPl7JUWQ36L-55" value="处理发送队列&lt;br&gt;函数" style="ellipse;whiteSpace=wrap;html=1;fontSize=16;fillColor=#6a00ff;fontColor=#ffffff;strokeColor=#3700CC;" vertex="1" parent="1">
          <mxGeometry x="750" y="710" width="120" height="80" as="geometry" />
        </mxCell>
        <mxCell id="A9LQamvl4RPl7JUWQ36L-72" value="主&lt;br&gt;事&lt;br&gt;件&lt;br&gt;循&lt;br&gt;环" style="text;html=1;align=center;verticalAlign=middle;resizable=0;points=[];autosize=1;strokeColor=none;fillColor=none;fontSize=20;" vertex="1" parent="1">
          <mxGeometry x="40" y="950" width="40" height="130" as="geometry" />
        </mxCell>
      </root>
    </mxGraphModel>
  </diagram>
</mxfile>
